<svg xmlns="http://www.w3.org/2000/svg" id="_306711" width="114.212" height="109" data-name="306711" viewBox="0 0 114.212 109">
    <defs>
        <style>
            .cls-1{fill:#fff}
        </style>
    </defs>
    <path id="Path_2709" d="M47.167-1221.78c-.2.08-1.321.411-2.5.75a20.4 20.4 0 0 0-4.105 1.446 5.578 5.578 0 0 0-3.141 3.525l-.223.741-1.044.651c-.571.366-1.633 1.053-2.365 1.526-.937.616-1.267.794-1.133.616a13.875 13.875 0 0 0 1.972-3.641c.286-.83 1.267-4.507 1.2-4.507a34.026 34.026 0 0 0-4.364 2.8 19.81 19.81 0 0 0-2.793 2.812 10.26 10.26 0 0 0-1.544 3.008 5.529 5.529 0 0 0 .009 2.981l.2.58-.259.214c-1.08.919-2.651 2.392-3.641 3.427l-1.187 1.24.437-.848c1.232-2.383 1.624-5.1 1.285-8.809-.089-.955-.187-1.785-.214-1.847s-.384.295-.857.893c-3.971 4.926-4.721 6.31-5.051 9.3-.214 2.026.268 4.757.857 4.846.116.018.419-.178.83-.518l.652-.553-.794 1.062a50.981 50.981 0 0 0-3.73 5.757c-.125.25-.241.428-.268.41a2.181 2.181 0 0 1 .054-.527 16.394 16.394 0 0 0 .178-3.588c-.107-1.722-.268-2.365-1.58-6.488-.277-.857-.527-1.6-.562-1.633-.071-.08-.2.3-1.249 3.6-1.669 5.239-1.981 7.327-1.419 9.612a10.619 10.619 0 0 0 1.267 3l.643 1.142.259-.294c.143-.161.232-.232.205-.161s-.205.535-.4 1.035c-.473 1.16-.982 2.651-1.4 4.052-.178.616-.348 1.178-.375 1.249s-.143-.268-.25-.759a19.454 19.454 0 0 0-2.579-6.06c-.455-.7-1.107-1.714-1.437-2.258-.6-1-.884-1.357-.991-1.25a12.078 12.078 0 0 0-.134 1.687c-.045.9-.116 2.2-.17 2.883a40.075 40.075 0 0 0 .045 5.845c.411 3.044 1.339 4.793 3.186 5.989a3.789 3.789 0 0 0 .759.4c.241.062.241-.009.071 1.535-.161 1.49-.312 3.882-.312 4.971v.8l-.5-.928a33.556 33.556 0 0 0-3.65-5.426 28.023 28.023 0 0 0-3.766-3.061c-.1 0-.125.063-.089.2.116.545.625 3.142.875 4.49 1.035 5.631 2.6 8.558 5.614 10.54a12.864 12.864 0 0 0 1.937 1.062c.009 0 .1.544.205 1.205.241 1.517.643 3.445.973 4.739a4.243 4.243 0 0 1 .2.919c-.036-.045-.25-.322-.473-.616-1-1.321-1.767-1.919-6.988-5.417a24.523 24.523 0 0 0-3.343-1.957c-.036.107 3.284 6.818 4.043 8.174a13.058 13.058 0 0 0 2.5 3.391 12.329 12.329 0 0 0 3.454 2.49 11.367 11.367 0 0 0 2.954.946c.295 0 .419.036.419.116a59.276 59.276 0 0 0 3.43 6.534c.143.214.062.17-.446-.241a20.078 20.078 0 0 0-3.748-2.258 21.4 21.4 0 0 0-4.944-1.785c-.884-.223-2.044-.562-2.57-.75-1.5-.535-1.526-.428-.268 1.08.5.607 1.383 1.7 1.963 2.446 1.99 2.562 5.15 5.355 7.068 6.247a18.045 18.045 0 0 0 3.561 1.062 7.391 7.391 0 0 0 1.981.1 7.951 7.951 0 0 0 1.312-.134c.2-.08.286-.009.928.732a52.137 52.137 0 0 0 5.56 5.435c.33.268.071.161-1.428-.589a8.061 8.061 0 0 0-2.856-1.107c-3.65-.678-11.781-1.437-11.781-1.107 0 .3 5.658 4.293 7.291 5.132a23.759 23.759 0 0 0 5.739 1.981 13.89 13.89 0 0 0 5.266-.277c.268-.08.821-.286 1.232-.455.732-.312.732-.321.58-.5-.1-.116.009-.072.277.116a57.367 57.367 0 0 0 7.479 4.016 1.967 1.967 0 0 1 .491.241 7.891 7.891 0 0 1-.964-.125 33.752 33.752 0 0 0-6.015-.036c-.892.107-2.187.339-5.578.982-1.008.188-2.481.464-3.275.607a6.028 6.028 0 0 0-1.428.33c.045.125 6.943 2.169 8.139 2.41a19.2 19.2 0 0 0 4.926.384c3.427-.089 5.462-.758 7.336-2.418l.839-.732 1.2.339c1.241.348 3.57.874 4.748 1.062l.651.107-.651.17c-1.74.455-2.472.776-7.711 3.382-3.838 1.9-5.221 2.641-5.221 2.775a48.35 48.35 0 0 0 7.5-.285 24.761 24.761 0 0 0 7.541-2.187 9.771 9.771 0 0 0 3.338-2.66l.571-.687h3.507l1.241 1.169c2.329 2.187 2.668 2.365 6.56 3.543 2.454.741 2.918.813 7.889 1.142 3.793.25 3.927.241 3.365-.232a21.5 21.5 0 0 0-3.266-1.651 12.06 12.06 0 0 1-2.41-1.249 27.257 27.257 0 0 0-7.265-3.016l-.821-.214 1.276-.241a49.6 49.6 0 0 0 5.248-1.294c.616-.2 1.026-.294.919-.214-.3.205-.259.5.134.848a11.829 11.829 0 0 0 5.48 2.445 25.6 25.6 0 0 0 5.971-.036 71.805 71.805 0 0 0 8.139-2.392c.321-.169.3-.357-.045-.473-.446-.134-3.65-.768-5.649-1.116-3.963-.687-6.158-.911-7.6-.768a28.172 28.172 0 0 0-3.945.669c-.455.125-.848.223-.884.223s.562-.259 1.321-.562a48.873 48.873 0 0 0 18.8-13.851c.366-.437.375-.446.357-.178-.027.428.3.535 1.678.535a12.026 12.026 0 0 0 3.927-.687 11.1 11.1 0 0 0 3.347-1.8 18 18 0 0 0 5.266-5.185 16.34 16.34 0 0 1 2.66-3.025c.312-.259.339-.437.054-.482a10.743 10.743 0 0 0-1.553.375c-.759.223-1.955.545-2.642.714a17.706 17.706 0 0 0-3.846 1.392 23.471 23.471 0 0 0-5.408 3.49c-.7.634-.714.643-.455.259a53.424 53.424 0 0 0 3.954-7.247 2 2 0 0 1 .259-.518.64.64 0 0 1 .214.143c.205.2.768.089 2.008-.366a13.125 13.125 0 0 0 6.078-4.453 86.436 86.436 0 0 0 4.471-8.541c.446-1.009.535-1.33.375-1.33-.187 0-4.141 2.5-6.354 4.025a14.777 14.777 0 0 0-4.23 3.963c-.232.339-.428.634-.437.642s.116-.464.277-1.071a56.779 56.779 0 0 0 1.321-6.408c.045-.384.062-.4.295-.366a2.18 2.18 0 0 0 .937-.321 10.527 10.527 0 0 0 4.909-4.971c.9-1.812 1.339-3.347 2.017-7.051.25-1.329.535-2.686.634-3.016.2-.634.205-.964.036-1.018s-1.044.732-2.713 2.437c-3.257 3.32-4.5 5.016-5.364 7.345l-.25.678-.009-1.2a57.983 57.983 0 0 0-.509-6.961l-.054-.223.214.2c.2.169.241.178.544.08a5.343 5.343 0 0 0 1.794-1.4c1.74-1.865 2.481-5.23 2.222-10-.107-2.026-.366-5.39-.428-5.6-.08-.268-3.124 4.846-4.052 6.792a8.142 8.142 0 0 0-.9 4.533l-.009 1.651-.214-.848c-.384-1.553-.759-2.874-1.169-4.141-.437-1.365-1.589-4.346-2-5.158-.437-.866-.286-.7.277.3.6 1.062.785 1.232 1.116 1.017.812-.535 2.1-3.722 2.249-5.56a7.571 7.571 0 0 0-.054-1.339 54.893 54.893 0 0 0-1.99-7.372c-.571-1.7-.669-1.937-.839-1.937-.277 0-1.535 3.034-1.874 4.552a31.981 31.981 0 0 0 0 7.738 1.279 1.279 0 0 1 .1.384 10.6 10.6 0 0 1-.535-.955 52.661 52.661 0 0 0-6.176-9.032 64.6 64.6 0 0 0-5.1-5.141c-.759-.643-.812-.714-.625-.759.366-.089.473-.473.509-1.731a5.067 5.067 0 0 0-.794-3.419 21.6 21.6 0 0 0-4.453-4.721 23.152 23.152 0 0 0-3.186-2c-.205 0-.134.607.241 2.026.857 3.3 1.392 4.427 3.017 6.346.464.545.482.58.2.393-.705-.455-1.294-.794-3.124-1.794l-1.919-1.044-.071-.553c-.232-1.892-1.785-3.7-4.087-4.784a60.847 60.847 0 0 0-6.328-1.981c-.3-.054-.357-.036-.357.1 0 .411 2.427 3.552 3.882 5.007a8.881 8.881 0 0 0 4.65 2.579l.928.205 2 1.374c1.1.75 1.99 1.375 1.972 1.392a2.331 2.331 0 0 1-.479-.078 12.419 12.419 0 0 0-3.641-.045 32.489 32.489 0 0 0-6.1 1.714c-1.151.553-.821.687 2.57 1.053 1.151.116 2.57.286 3.159.366 2.32.3 7.113.25 8.121-.107.428-.143.393-.17 2.079 1.249 1.49 1.24 1.972 1.687 1.758 1.615a20.839 20.839 0 0 0-7.595-.848c-1.526.08-2 .187-2 .446 0 .2.205.33 1.116.714.393.161 1.821.812 3.168 1.437 4.3 1.981 5.837 2.445 8.719 2.633l.928.063.339.411c.9 1.1 2.865 3.757 2.865 3.891a1.436 1.436 0 0 1-.419-.259 18.376 18.376 0 0 0-3.338-1.687c-2.793-1.062-5.971-1.785-5.971-1.366a4.8 4.8 0 0 0 .919.928c1.428 1.241 5.6 4.676 6.372 5.248a23.438 23.438 0 0 0 5.283 3.034l.571.16.312.678a30.29 30.29 0 0 1 1.776 4.73c-1.187-1.285-1.553-1.66-2.142-2.2a12.021 12.021 0 0 0-1.428-1.133c-1.892-1.267-5.524-3.106-5.739-2.9-.089.1.214.562.91 1.366a29.865 29.865 0 0 1 3.5 5.042 18.085 18.085 0 0 0 1.16 1.776 22.641 22.641 0 0 0 4.971 4.533 2.211 2.211 0 0 1 .625.473c.089.295.5 3.356.625 4.73.125 1.348.17 2.793.071 2.365a13 13 0 0 0-1.981-4.355c-.714-.892-5.685-5.926-5.774-5.845a77.634 77.634 0 0 0 2.82 8.951 23.306 23.306 0 0 0 4.328 7.086l.553.589-.071.714a57 57 0 0 1-.946 5.935c-.036.143-.1-.107-.17-.705-.259-2.079-.776-3.427-2.481-6.381-1.58-2.757-2.66-4.373-2.856-4.31-.161.053-.161.857-.009 3.409.223 3.829.482 6.97.678 8.3a16.046 16.046 0 0 0 2.428 5.828l.419.571-.5 1.214c-.768 1.865-3.052 6.426-2.767 5.533.027-.089.1-.607.152-1.151a24.917 24.917 0 0 0-.187-5.435c-.714-3.882-1.678-6.569-2.169-6.078a4.615 4.615 0 0 0-.205 1.124 59.892 59.892 0 0 1-1.232 5.962 23.847 23.847 0 0 0-.83 5.444 10.133 10.133 0 0 0 .66 4.373l.384 1.151-.464.589c-.607.777-2.142 2.579-2.82 3.32l-.535.58.214-.937a21.05 21.05 0 0 0 .509-5.756c0-1.437-.062-3.124-.125-3.793l-.125-1.2-.857 1.651c-1.232 2.365-2.151 4.016-2.811 5.016-1.812 2.776-2.213 4.221-2.41 8.7l-.062 1.357-1.294.91a37.09 37.09 0 0 1-3.748 2.356 1.77 1.77 0 0 1 .277-.464 20.069 20.069 0 0 0 2.606-6 35.023 35.023 0 0 0 .652-3.775c-.045-.134-4.8 4.471-6.158 5.962-2.749 3.025-3.6 4.471-3.945 6.72l-.107.669-1.294.429c-1.125.366-4.007 1.169-4.007 1.107 0-.009.286-.259.643-.545a19.754 19.754 0 0 0 4.3-5.622 6.909 6.909 0 0 0 .571-1.874 11.137 11.137 0 0 0-1.232.553c-1.294.616-2.178.982-4.15 1.723a10.328 10.328 0 0 0-4.926 3.15c-1.241 1.392-2.053 2.776-1.963 3.32l.045.286-.535.063c-.3.026-1.615.054-2.927.054a8.722 8.722 0 0 1-2.472-.116 9.22 9.22 0 0 1-.464-1.026 8.355 8.355 0 0 0-2.428-3.463c-1.2-.982-2.249-1.509-5.346-2.677-.857-.322-2.2-.9-2.963-1.285a8.416 8.416 0 0 0-1.41-.625 9.86 9.86 0 0 0 .732 2.008 22.243 22.243 0 0 0 4.73 5.828c.241.178.4.339.357.357a45.859 45.859 0 0 1-5.239-1.437l-.357-.125-.062-.651c-.205-2.017-1.017-3.543-3.07-5.8-1.044-1.151-6.926-7.149-6.97-7.113a24.176 24.176 0 0 0 .678 3.748 17.856 17.856 0 0 0 2.8 6.568l.348.473-.428-.25c-2.552-1.473-5-3.132-4.98-3.391.009-.1.062-.518.134-.955.348-2.32-.776-6.328-2.642-9.344-.9-1.464-1.714-2.9-2.6-4.605a16.93 16.93 0 0 0-.919-1.642 40.639 40.639 0 0 0-.187 5.265c0 3.748.178 5.185.812 6.461l.268.544-.455-.446c-.7-.669-2.472-2.669-3.284-3.686l-.714-.892.259-.518a13.857 13.857 0 0 0 .946-4.632 28.049 28.049 0 0 0-1.044-7.184 44.067 44.067 0 0 1-1.16-5.881c0-.393-.125-.634-.268-.491a12.918 12.918 0 0 0-1.062 2.659c-.321 1.142-.812 3.373-1.1 5.007a13.565 13.565 0 0 0 .045 4.873c.134.723.259 1.383.295 1.472a17.351 17.351 0 0 1-1.571-2.74c-.759-1.5-1.241-2.544-1.83-4.007l-.384-.928.3-.232c.991-.741 2.428-3.659 2.758-5.6.4-2.356 1.071-11.79.848-12.013-.241-.241-1.517 1.544-3.043 4.275-1.731 3.106-2.267 4.766-2.392 7.407l-.054 1.25-.205-.848a52.028 52.028 0 0 1-1.089-6.158c-.054-.517-.116-1.053-.134-1.2-.036-.223-.027-.241.089-.143.2.161.393-.045 1.606-1.651a34.376 34.376 0 0 0 2.811-4.2c.268-.571 1.214-3.115 1.41-3.784.045-.17.259-.83.455-1.464.535-1.669 1.41-4.587 1.508-5.034.054-.2.054-.375.018-.375a53.869 53.869 0 0 0-5.1 5 13.743 13.743 0 0 0-2.793 5.917 3.1 3.1 0 0 1-.187.661c-.062-.054.143-3.632.268-4.837a16.218 16.218 0 0 1 .651-3.882 4.942 4.942 0 0 0 1.687-1.008c2.2-1.642 3.739-3.418 6.506-7.515.723-1.08 1.776-2.57 2.338-3.311a10.712 10.712 0 0 0 1.008-1.49c0-.2-.286-.1-1.4.464a41.888 41.888 0 0 0-6.14 3.811 16.434 16.434 0 0 0-2.258 2.57 2.772 2.772 0 0 1-.375.482 55.591 55.591 0 0 1 2.017-5.391l.4-.893.518-.107a20.572 20.572 0 0 0 5.185-2.758 32.739 32.739 0 0 0 3.793-2.972c.643-.571 1.687-1.455 2.32-1.981 1.392-1.133 1.669-1.4 1.633-1.58-.045-.223-.91-.161-2.258.161a20.263 20.263 0 0 0-7.22 3.124l-.884.634a33.882 33.882 0 0 1 3.365-4.73c.232-.259.25-.268 1.089-.268a18.605 18.605 0 0 0 7.845-2.07c.839-.393 2.356-1.089 3.382-1.553s1.919-.884 1.981-.937c.214-.178.143-.411-.161-.526a27.438 27.438 0 0 0-6.854.036 15.959 15.959 0 0 0-2.749.723l-.33.134.446-.4c.625-.571 2.3-1.981 2.945-2.472l.535-.419.714.205c1.758.509 4.311.527 8.121.054 2.972-.366 4.6-.536 5.212-.545.562 0 1.089-.152 1.151-.33.08-.268-2.936-1.41-4.855-1.839-.535-.125-1.365-.267-1.847-.33a20.14 20.14 0 0 0-4.48.134 3.688 3.688 0 0 1-.553.107 5.545 5.545 0 0 1 .58-.473c.33-.25 1.214-.919 1.972-1.49a8.725 8.725 0 0 1 1.446-.982 4.709 4.709 0 0 0 1.017-.054c2.1-.223 3.641-1.089 5.8-3.257 2.222-2.231 3.677-4.248 3.249-4.516-.134-.108-.121-.108-.554.053z" class="cls-1" data-name="Path 2709" transform="translate(-.197 1221.915)"/>
    <path id="Path_2710" d="M1016.954-1148.3c.018.661.063 2.089.089 3.168a23.665 23.665 0 0 0 .41 4.668 11.985 11.985 0 0 0 1.482 3.133c.741 1.125 2.892 3.222 3.3 3.222.678 0 1.107-4.1.643-6.2a13.387 13.387 0 0 0-2.74-5.31c-.571-.732-2.481-3.044-2.99-3.606l-.25-.277z" class="cls-1" data-name="Path 2710" transform="translate(-926.163 1155.963)"/>
    <path id="Path_2711" d="M955.9-220.726c-5.542.393-7.211.6-9.2 1.1a17.2 17.2 0 0 0-6.854 3.463c-.857.678-1.142 1.151-.946 1.535.339.651 3.133 1.258 5.167 1.125a18.344 18.344 0 0 0 5.819-1.562c1.99-.937 8.122-4.935 8.309-5.426a.186.186 0 0 0-.071-.214 10.974 10.974 0 0 0-2.224-.021z" class="cls-1" data-name="Path 2711" transform="translate(-855.066 310.117)"/>
</svg>
